PathFileType	4	(X/Y/Z)	E:\Qualisys_Data\Carbon_Farble_Plate\Data\Amateur_Runner\S2\T2\S2T2V12_c3d.trc
DataRate	CameraRate	NumFrames	NumMarkers	Units	OrigDataRate	OrigDataStartFrame	OrigNumFrames
200.000000	200.000000	4	39	mm	200.000000	124	331
Frame#	Time	LSHO			RSHO			LICST			RICST			LASIS			LHEEL			RASIS			LTROC			RTROC			SACR			LTH1			LSK4			LTH2			LTH3			RHM5			LSK2			LTH4			RTH1			LTOE			RTH2			RTH3			RTH4			LLEP			RLEP			LSK1			LSK3			RSK1			LHM5			RSK2			LFT1			RSK3			RSK4			LLME			RLME			RTOE			RHEEL			RFT1			RFT2			LFT2			
		X1	Y1	Z1	X2	Y2	Z2	X3	Y3	Z3	X4	Y4	Z4	X5	Y5	Z5	X6	Y6	Z6	X7	Y7	Z7	X8	Y8	Z8	X9	Y9	Z9	X10	Y10	Z10	X11	Y11	Z11	X12	Y12	Z12	X13	Y13	Z13	X14	Y14	Z14	X15	Y15	Z15	X16	Y16	Z16	X17	Y17	Z17	X18	Y18	Z18	X19	Y19	Z19	X20	Y20	Z20	X21	Y21	Z21	X22	Y22	Z22	X23	Y23	Z23	X24	Y24	Z24	X25	Y25	Z25	X26	Y26	Z26	X27	Y27	Z27	X28	Y28	Z28	X29	Y29	Z29	X30	Y30	Z30	X31	Y31	Z31	X32	Y32	Z32	X33	Y33	Z33	X34	Y34	Z34	X35	Y35	Z35	X36	Y36	Z36	X37	Y37	Z37	X38	Y38	Z38	X39	Y39	Z39	

125	0.62	-337.2319030761719	1434.005249023438	-526.6182250976562	-330.0525207519531	1428.622924804688	-206.5912780761719	-389.0362548828125	976.5711059570312	-500.5156555175781	-362.2199401855469	968.4323120117188	-195.8512573242188	-331.2764587402344	930.067626953125	-488.4172058105469	-702.3611450195312	138.4331817626953	-351.4927368164062	-301.5183410644531	925.30517578125	-226.3244781494141	-463.2401733398438	853.7363891601562	-488.4786682128906	-435.5155334472656	858.6902465820312	-186.4441833496094	-465.9374389648438	1013.251281738281	-343.1762390136719	-355.7039794921875	625.0856323242188	-497.1200561523438	-569.6405029296875	296.7534790039062	-452.8167724609375	-438.0162658691406	626.5305786132812	-494.5075988769531	-358.4905395507812	523.548583984375	-474.51318359375	-525.2821655273438	190.5394287109375	-182.2989501953125	-515.3174438476562	377.8536376953125	-472.6949462890625	-441.6500549316406	529.189453125	-467.0959167480469	-218.1728668212891	657.3564453125	-174.8979797363281	-476.1816711425781	62.18906021118164	-387.6072082519531	-291.5380249023438	627.834716796875	-174.3556060791016	-181.5859222412109	563.4620971679688	-190.8357238769531	-258.5919799804688	536.5398559570312	-190.7377166748047	-410.837890625	468.4437561035156	-466.2073669433594	-221.3774261474609	510.8305358886719	-186.7081146240234	-449.4550476074219	336.0912475585938	-460.4490966796875	-504.0971374511719	253.8134460449219	-443.3916931152344	-281.8424987792969	419.0896911621094	-189.0391693115234	-537.3283081054688	64.3056411743164	-443.2345275878906	-320.7073059082031	489.4907836914062	-187.5309906005859	-701.43603515625	105.3610687255859	-331.4213562011719	-370.0753479003906	369.2108459472656	-197.7933807373047	-406.1511535644531	440.0633544921875	-199.7362213134766	-636.7435913085938	136.1768798828125	-414.7989501953125	-548.4048461914062	309.2409057617188	-224.1078033447266	-464.5178527832031	138.2735900878906	-231.0637512207031	-591.5189819335938	345.2930908203125	-288.3597717285156	-605.3764038085938	314.0459899902344	-317.1844787597656	-617.2872924804688	330.3718566894531	-263.9709777832031	-709.2820434570312	109.0486450195312	-383.5048828125
126	0.625	-319.6155090332031	1438.713989257812	-525.0750732421875	-317.3042907714844	1432.807739257812	-205.9590454101562	-371.7741394042969	980.2239990234376	-500.0871887207031	-346.3206787109375	973.0567626953124	-195.5802001953125	-314.6409912109375	933.174072265625	-487.6684265136719	-698.6771240234375	143.6857299804688	-352.3855285644531	-285.7833251953125	929.8428344726562	-226.1440124511719	-448.1226806640625	858.4266357421875	-487.2801208496094	-418.8813171386719	863.60595703125	-185.0569458007812	-449.71533203125	1017.186157226562	-343.7369384765625	-344.2745971679688	628.0596923828125	-496.1710205078125	-565.0895385742188	302.48681640625	-453.5199584960938	-426.845947265625	632.2714233398438	-494.6615600585938	-349.6488647460938	526.8570556640625	-473.4379272460938	-494.0325317382812	185.3468933105469	-181.4639892578125	-509.7986755371094	383.5449829101562	-472.9869384765625	-432.9049072265625	534.8523559570312	-467.9642333984375	-200.831298828125	663.61865234375	-175.0987243652344	-475.50439453125	62.18551635742188	-387.8556518554688	-273.8060302734375	633.2009887695312	-174.2321929931641	-163.348388671875	570.235107421875	-190.971435546875	-239.9866333007812	542.0289306640625	-190.6528778076172	-403.8980102539062	473.0306701660156	-466.7577514648438	-202.7101898193359	516.2713623046875	-187.0899505615234	-444.53564453125	341.3351135253906	-461.6784973144531	-500.0703735351562	259.4914245605469	-445.140380859375	-260.4879760742188	422.4629516601562	-188.7767486572266	-536.3411254882812	64.9828872680664	-443.71875	-302.5160522460938	490.9296569824219	-187.4672698974609	-699.1180419921875	111.5841064453125	-331.9284362792969	-346.9526062011719	368.851806640625	-197.9452819824219	-386.037109375	438.075927734375	-199.2103271484375	-632.742431640625	141.3232269287109	-416.0273132324219	-522.9590454101562	301.8517150878906	-224.1021270751953	-430.6531982421875	135.5220794677734	-229.6892700195312	-567.9571533203125	335.7169799804688	-288.5793151855469	-579.5132446289062	303.4586181640625	-316.7529602050781	-594.3802490234375	319.4635620117188	-264.7080078125	-706.2276000976562	114.6277618408203	-384.5462341308594
127	0.63	-302.3534851074219	1443.601318359375	-523.69287109375	-303.8518981933594	1437.2841796875	-205.0981597900391	-354.3070068359375	983.7674560546876	-499.1391296386719	-330.1147766113281	978.1569213867188	-195.3683166503906	-298.1585998535156	936.5109252929688	-487.1137390136719	-694.6861572265625	149.2872161865234	-353.1179809570312	-269.3222045898438	934.6610107421876	-225.9993743896484	-432.5066833496094	863.2257690429688	-486.4050903320312	-402.34130859375	868.8507080078125	-183.5877227783203	-433.6517639160156	1021.623107910156	-344.0506896972656	-332.5394897460938	631.5136108398438	-495.2398071289062	-559.9237670898438	308.9976196289062	-454.7905578613281	-414.8384704589844	637.4778442382812	-494.7597351074219	-340.1952209472656	530.1265869140625	-472.5625610351562	-462.645751953125	179.5656433105469	-180.7410278320312	-504.1576843261719	389.6437072753906	-474.1519775390625	-423.5422973632812	540.2163696289062	-468.1715698242188	-183.4587707519531	669.7880859375	-175.2998352050781	-474.6624145507812	62.53010177612305	-388.5440979003906	-256.090087890625	638.9639282226562	-173.8160552978516	-145.2902069091797	576.6986083984375	-191.3519439697266	-221.6085510253906	548.0890502929688	-190.1065368652344	-396.57568359375	477.4173583984375	-466.7673645019531	-184.8057250976562	521.5704345703125	-187.5767669677734	-439.1101379394531	346.9730529785156	-463.0114440917969	-495.7845458984375	265.0677185058594	-446.892333984375	-239.8653564453125	424.9422912597656	-188.4655456542969	-535.10595703125	65.33173370361328	-443.9917602539062	-284.4216003417969	492.2076416015625	-187.4429779052734	-695.0936889648438	117.2439270019531	-333.1151428222656	-324.2823486328125	368.4109191894531	-198.0335235595703	-365.8584899902344	436.2559814453125	-199.0468902587891	-627.8331298828125	146.6628723144531	-417.4944763183594	-497.0098876953125	294.4347534179688	-223.8235473632812	-397.0513305664062	133.3235473632812	-228.4972534179688	-543.8016357421875	326.1349487304688	-288.2976379394531	-553.5947875976562	292.7038879394531	-316.7654724121094	-569.5880126953125	308.2057495117188	-265.2769470214844	-702.8579711914062	120.1419372558594	-384.9813232421875
128	0.635	-284.8613891601562	1448.739379882812	-522.7675170898438	-290.7617492675781	1441.795654296875	-204.4894561767578	-337.0969543457031	988.1309204101562	-499.0567626953125	-313.9567565917969	983.2640991210938	-194.906005859375	-281.6124267578125	939.62744140625	-486.4741516113281	-690.0511474609375	155.9640350341797	-354.5642700195312	-253.0877227783203	939.363525390625	-225.8148345947266	-416.6782836914062	867.786376953125	-485.3919982910156	-385.5419006347656	873.8663940429688	-181.8996276855469	-416.7768859863281	1025.810668945312	-344.3792724609375	-320.3110046386719	634.9085083007812	-494.5362854003906	-553.8759155273438	315.5181274414062	-455.8170776367188	-402.9381713867188	642.8270874023438	-494.7325744628906	-330.6126708984375	533.875244140625	-472.3514099121094	-431.3464050292969	174.6672058105469	-179.7777404785156	-497.7946472167969	396.2799682617188	-475.1586608886719	-413.8809509277344	545.498291015625	-468.4242553710938	-165.9524536132812	675.9107666015625	-175.3000640869141	-473.3954162597656	62.49607467651367	-389.349853515625	-238.3743133544922	644.5358276367188	-172.7906951904297	-127.4355392456055	583.1309204101562	-192.2156982421875	-203.7493743896484	553.996337890625	-189.1617584228516	-388.603759765625	482.2074279785156	-467.668212890625	-166.8635711669922	526.6419067382812	-188.2888488769531	-432.8915710449219	352.6551513671875	-464.67578125	-489.9827575683594	270.9888000488281	-448.7628173828125	-219.2339172363281	427.6380310058594	-188.2061309814453	-533.9389038085938	66.18345642089844	-445.0684204101562	-266.5551147460938	492.78173828125	-187.5506439208984	-691.2288208007812	124.0763168334961	-333.9615173339844	-301.7138366699219	369.4613952636719	-194.1226654052734	-345.6952514648438	433.7637023925781	-198.6945037841797	-622.5404052734375	151.9641418457031	-419.3431701660156	-471.0704040527344	286.9081726074219	-223.5080871582031	-363.3368530273438	130.8449096679688	-227.2962951660156	-519.4022827148438	316.1734619140625	-288.3510437011719	-527.428955078125	282.2850341796875	-316.1372375488281	-544.3994140625	297.1932983398438	-265.1991577148438	-701.691650390625	125.7369766235352	-384.6589660644531
